<svg width="158" height="50" viewBox="0 0 158 50" fill="none" xmlns="http://www.w3.org/2000/svg">
<g clip-path="url(#clip0_18_1115)">
<path d="M27.2143 31.9754L17.813 30.5253L13.6072 21.4287L9.40132 30.5253L0 31.9754L6.80359 39.0286L5.19546 49.0149L13.6072 44.3019L22.0188 49.0149L20.4108 39.0286L27.2143 31.9754Z" fill="#FFD600"/>
<path d="M59.8715 31.9754L50.4703 30.5253L46.2643 21.4287L42.0585 30.5253L32.6572 31.9754L39.4607 39.0286L37.8527 49.0149L46.2643 44.3019L54.6761 49.0149L53.0679 39.0286L59.8715 31.9754Z" fill="#FFD600"/>
<path d="M92.5289 31.9754L83.1275 30.5253L78.9217 21.4287L74.7158 30.5253L65.3145 31.9754L72.1181 39.0286L70.51 49.0149L78.9217 44.3019L87.3334 49.0149L85.7253 39.0286L92.5289 31.9754Z" fill="#FFD600"/>
<path d="M125.186 31.9754L115.784 30.5253L111.579 21.4287L107.373 30.5253L97.9714 31.9754L104.775 39.0286L103.167 49.0149L111.579 44.3019L119.99 49.0149L118.382 39.0286L125.186 31.9754Z" fill="#FFD600"/>
<path d="M157.843 31.9754L148.442 30.5253L144.236 21.4287L140.03 30.5253L130.629 31.9754L137.433 39.0286L135.824 49.0149L144.236 44.3019L152.648 49.0149L151.039 39.0286L157.843 31.9754Z" fill="#FFD600"/>
<path d="M27.2377 7.3206H23.6496L27.2076 1.94992H27.2377V7.3206ZM28.4438 7.3206V0.0771484H27.4187L22.5491 7.21226V8.48142H27.2377V11.0507H28.4438V8.48142H29.8912V7.3206H28.4438Z" fill="white"/>
<path d="M31.7556 9.33301V11.051H33.429V9.33301H31.7556Z" fill="white"/>
<path d="M37.037 2.925C37.037 2.6464 37.0873 2.40393 37.1878 2.19756C37.2882 1.9912 37.4189 1.81579 37.5797 1.67133C37.7506 1.52688 37.9516 1.41853 38.1827 1.3463C38.4139 1.27407 38.6551 1.23796 38.9064 1.23796C39.429 1.23796 39.8562 1.38242 40.1879 1.67133C40.5297 1.94992 40.7005 2.36782 40.7005 2.925C40.7005 3.48219 40.5346 3.91556 40.203 4.22512C39.8712 4.53466 39.4491 4.68943 38.9366 4.68943C38.6753 4.68943 38.4289 4.65332 38.1978 4.58109C37.9667 4.50886 37.7656 4.40052 37.5948 4.25607C37.424 4.11162 37.2882 3.93105 37.1878 3.71436C37.0873 3.48735 37.037 3.22423 37.037 2.925ZM35.6801 2.87858C35.6801 3.37385 35.8158 3.83302 36.0872 4.25607C36.3585 4.6688 36.7204 4.96803 37.1727 5.15376C36.5696 5.37045 36.1072 5.72128 35.7856 6.20623C35.464 6.68088 35.3032 7.24322 35.3032 7.89327C35.3032 8.45046 35.3937 8.94059 35.5745 9.36363C35.7656 9.77637 36.0218 10.122 36.3434 10.4006C36.6752 10.6792 37.062 10.8856 37.5043 11.0197C37.9465 11.1539 38.424 11.2209 38.9366 11.2209C39.429 11.2209 39.8914 11.1487 40.3236 11.0042C40.7557 10.8598 41.1276 10.6483 41.4392 10.3697C41.7608 10.0808 42.0121 9.72993 42.1929 9.3172C42.3839 8.90448 42.4794 8.42983 42.4794 7.89327C42.4794 7.21226 42.3237 6.6396 42.0121 6.17527C41.7005 5.70063 41.223 5.36013 40.5798 5.15376C41.0321 4.94739 41.3889 4.643 41.6502 4.24059C41.9216 3.82786 42.0574 3.37385 42.0574 2.87858C42.0574 2.52775 41.997 2.18725 41.8764 1.85706C41.7558 1.51656 41.5648 1.21732 41.3035 0.959365C41.0522 0.691088 40.7206 0.479564 40.3085 0.324788C39.8965 0.159695 39.3988 0.0771484 38.8159 0.0771484C38.4039 0.0771484 38.0069 0.139059 37.6249 0.262878C37.253 0.386698 36.9214 0.567268 36.63 0.80459C36.3385 1.04191 36.1072 1.33598 35.9364 1.6868C35.7656 2.02732 35.6801 2.42456 35.6801 2.87858ZM36.6601 7.95519C36.6601 7.63532 36.7154 7.3464 36.8258 7.08845C36.9465 6.83049 37.1073 6.60865 37.3084 6.42292C37.5194 6.23719 37.7606 6.09789 38.0319 6.00502C38.3134 5.90185 38.6099 5.85025 38.9215 5.85025C39.2229 5.85025 39.5044 5.907 39.7657 6.0205C40.0371 6.12369 40.2733 6.26815 40.4743 6.45388C40.6754 6.6396 40.8311 6.86145 40.9416 7.1194C41.0622 7.36705 41.1226 7.64048 41.1226 7.9397C41.1226 8.24926 41.0673 8.53302 40.9567 8.79097C40.8562 9.04893 40.7055 9.27593 40.5044 9.47197C40.3135 9.6577 40.0823 9.80732 39.8109 9.92083C39.5496 10.024 39.2582 10.0756 38.9366 10.0756C38.2732 10.0756 37.7254 9.88988 37.2933 9.51842C36.8711 9.13663 36.6601 8.61556 36.6601 7.95519Z" fill="white"/>
<path d="M51.6303 5.50995C51.6303 5.98459 51.4744 6.38185 51.163 6.70171C50.8614 7.02158 50.4745 7.18152 50.0021 7.18152C49.5297 7.18152 49.1376 7.02158 48.8262 6.70171C48.5246 6.38185 48.3738 5.98459 48.3738 5.50995C48.3738 5.02499 48.5246 4.62774 48.8262 4.31818C49.1376 3.99831 49.5297 3.83838 50.0021 3.83838C50.4745 3.83838 50.8614 3.99831 51.163 4.31818C51.4744 4.62774 51.6303 5.02499 51.6303 5.50995Z" fill="white"/>
<path d="M62.1072 11.0507V0.0771484H61.1272C61.0568 0.489881 60.9262 0.830387 60.7352 1.09866C60.5443 1.36694 60.3081 1.57846 60.0266 1.73323C59.7553 1.88802 59.4488 1.99636 59.107 2.05826C58.7653 2.10986 58.4135 2.13565 58.0518 2.13565V3.18812H60.8257V11.0507H62.1072Z" fill="white"/>
<path d="M70.4844 11.0507V0.0771484H69.5044C69.434 0.489881 69.3034 0.830387 69.1124 1.09866C68.9215 1.36694 68.6853 1.57846 68.4038 1.73323C68.1325 1.88802 67.826 1.99636 67.4842 2.05826C67.1425 2.10986 66.7907 2.13565 66.429 2.13565V3.18812H69.2029V11.0507H70.4844Z" fill="white"/>
<path d="M76.7812 4.7823V5.89668C77.0225 5.86573 77.2787 5.85025 77.5501 5.85025C77.8717 5.85025 78.1682 5.89668 78.4397 5.98955C78.721 6.07209 78.9622 6.20623 79.1632 6.39196C79.3643 6.56738 79.5251 6.78922 79.6456 7.05749C79.7663 7.31545 79.8266 7.61468 79.8266 7.95519C79.8266 8.28537 79.7613 8.5846 79.6307 8.85287C79.5101 9.11083 79.3442 9.33269 79.1331 9.51842C78.9221 9.69382 78.6757 9.83312 78.3944 9.9363C78.113 10.0292 77.8165 10.0756 77.5049 10.0756C76.7712 10.0756 76.2134 9.85376 75.8315 9.41008C75.4495 8.95606 75.2486 8.37307 75.2284 7.66112H73.9469C73.9369 8.22862 74.0123 8.73422 74.1731 9.1779C74.3439 9.62159 74.5852 9.99822 74.8967 10.3078C75.2083 10.607 75.5853 10.834 76.0275 10.9888C76.4697 11.1435 76.9622 11.2209 77.5049 11.2209C78.0074 11.2209 78.4798 11.1539 78.9221 11.0197C79.3743 10.8753 79.7663 10.6637 80.098 10.3851C80.4296 10.1066 80.6909 9.76089 80.8819 9.34816C81.083 8.9251 81.1835 8.44015 81.1835 7.89327C81.1835 7.2329 81.0227 6.66023 80.7011 6.17527C80.3895 5.69032 79.9071 5.3756 79.2537 5.23115V5.20019C79.6758 5.00415 80.0277 4.71523 80.309 4.33346C80.5904 3.95168 80.7312 3.51315 80.7312 3.01788C80.7312 2.51228 80.6457 2.07375 80.4749 1.70229C80.3141 1.33082 80.0879 1.02643 79.7964 0.789113C79.505 0.551791 79.1583 0.37638 78.7562 0.262878C78.3643 0.139059 77.9371 0.0771484 77.4747 0.0771484C76.942 0.0771484 76.4696 0.164854 76.0577 0.340265C75.6556 0.515678 75.3189 0.758158 75.0475 1.06771C74.7762 1.37726 74.565 1.74872 74.4143 2.18209C74.2736 2.61546 74.1931 3.09526 74.1731 3.62149H75.4546C75.4546 3.30162 75.4948 2.99723 75.5751 2.70832C75.6556 2.4194 75.7762 2.1666 75.937 1.94992C76.1078 1.73323 76.3189 1.56299 76.5702 1.43916C76.8315 1.30503 77.133 1.23796 77.4747 1.23796C78.0174 1.23796 78.4697 1.38758 78.8316 1.6868C79.1934 1.97572 79.3743 2.41425 79.3743 3.00239C79.3743 3.2913 79.3191 3.54926 79.2085 3.77626C79.098 4.00328 78.9472 4.19416 78.7562 4.34893C78.5752 4.49339 78.3592 4.60689 78.1079 4.68943C77.8666 4.76166 77.6104 4.79778 77.339 4.79778H77.0677C77.0174 4.79778 76.9672 4.79778 76.9169 4.79778C76.8767 4.79778 76.8315 4.79262 76.7812 4.7823Z" fill="white"/>
<path d="M87.2437 0V11.0509H88.6759V6.33029H92.1736C92.5253 6.33029 92.8068 6.38704 93.0177 6.50054C93.2289 6.60373 93.3997 6.74819 93.5305 6.93391C93.6611 7.10933 93.7565 7.32084 93.8168 7.56849C93.8771 7.80581 93.9275 8.05861 93.9676 8.32689C94.0178 8.59516 94.048 8.8686 94.0581 9.14719C94.0681 9.42579 94.0781 9.6889 94.0883 9.93654C94.0983 10.1739 94.1184 10.3905 94.1486 10.5866C94.1888 10.7826 94.2591 10.9374 94.3596 11.0509H95.9576C95.8069 10.8652 95.6914 10.6537 95.6109 10.4163C95.5406 10.1687 95.4853 9.91074 95.445 9.64247C95.4048 9.3742 95.3798 9.10076 95.3696 8.82216C95.3596 8.54357 95.3445 8.27013 95.3245 8.00186C95.2944 7.73359 95.2491 7.47563 95.1888 7.22799C95.1385 6.98034 95.0531 6.7585 94.9324 6.56246C94.822 6.35609 94.6661 6.18067 94.4651 6.03621C94.2741 5.89176 94.0229 5.78857 93.7113 5.72667V5.69571C94.3646 5.50999 94.837 5.16431 95.1285 4.65873C95.4299 4.15313 95.5807 3.56499 95.5807 2.89429C95.5807 1.9966 95.2893 1.28979 94.7064 0.773874C94.1335 0.257959 93.3344 0 92.3093 0H87.2437ZM91.661 5.09209H88.6759V1.2382H92.2339C92.9073 1.2382 93.3947 1.41361 93.6962 1.76443C93.9978 2.11526 94.1486 2.56926 94.1486 3.12646C94.1486 3.52887 94.0781 3.85906 93.9375 4.11701C93.8068 4.36464 93.6259 4.56586 93.3947 4.72063C93.1736 4.86509 92.9123 4.96311 92.6107 5.0147C92.3093 5.0663 91.9926 5.09209 91.661 5.09209Z" fill="white"/>
<path d="M104.258 11.0199C104.037 11.1541 103.73 11.2211 103.338 11.2211C103.007 11.2211 102.74 11.1283 102.539 10.9425C102.348 10.7465 102.253 10.4318 102.253 9.99841C101.901 10.4318 101.489 10.7465 101.017 10.9425C100.554 11.1283 100.052 11.2211 99.5092 11.2211C99.1573 11.2211 98.8206 11.1799 98.499 11.0973C98.1874 11.0148 97.9161 10.8858 97.685 10.7104C97.4537 10.535 97.2678 10.308 97.1272 10.0294C96.9964 9.74045 96.9312 9.39478 96.9312 8.99237C96.9312 8.53837 97.0066 8.16691 97.1572 7.878C97.308 7.58908 97.504 7.35691 97.7452 7.18151C97.9965 6.99578 98.2779 6.85648 98.5895 6.76361C98.9111 6.67075 99.2378 6.59335 99.5694 6.53145C99.9213 6.45922 100.253 6.40762 100.565 6.37668C100.886 6.3354 101.168 6.28381 101.409 6.2219C101.65 6.14967 101.841 6.05165 101.982 5.92782C102.122 5.7937 102.193 5.6028 102.193 5.35517C102.193 5.06625 102.137 4.83408 102.027 4.65868C101.926 4.48327 101.791 4.34912 101.62 4.25627C101.459 4.1634 101.273 4.10148 101.062 4.07052C100.861 4.03958 100.66 4.0241 100.459 4.0241C99.9162 4.0241 99.464 4.13244 99.1021 4.34912C98.7403 4.5555 98.5443 4.95275 98.5141 5.5409H97.2326C97.2528 5.04561 97.3532 4.62772 97.5342 4.28721C97.7152 3.94671 97.9563 3.67328 98.2579 3.46691C98.5593 3.25022 98.9011 3.09545 99.283 3.00258C99.6749 2.90972 100.092 2.86328 100.534 2.86328C100.886 2.86328 101.233 2.88908 101.575 2.94067C101.926 2.99227 102.243 3.10061 102.524 3.2657C102.806 3.42048 103.032 3.64232 103.203 3.93124C103.374 4.22015 103.459 4.59677 103.459 5.0611V9.1781C103.459 9.48765 103.474 9.71465 103.504 9.85911C103.544 10.0036 103.665 10.0758 103.866 10.0758C103.977 10.0758 104.107 10.05 104.258 9.99841V11.0199ZM102.178 6.91838C102.017 7.04221 101.806 7.13507 101.544 7.19698C101.283 7.24857 101.007 7.29501 100.715 7.33628C100.434 7.36724 100.147 7.40851 99.8559 7.4601C99.5645 7.50137 99.3032 7.5736 99.0719 7.67678C98.8408 7.77997 98.6498 7.92958 98.499 8.12562C98.3584 8.31137 98.288 8.56932 98.288 8.89951C98.288 9.1162 98.3282 9.30192 98.4085 9.4567C98.499 9.60115 98.6096 9.71981 98.7403 9.81268C98.8809 9.90554 99.0417 9.97261 99.2227 10.0139C99.4037 10.0552 99.5946 10.0758 99.7956 10.0758C100.218 10.0758 100.58 10.019 100.881 9.90554C101.183 9.78172 101.429 9.63211 101.62 9.4567C101.811 9.27097 101.951 9.07491 102.042 8.86855C102.132 8.65187 102.178 8.45065 102.178 8.26492V6.91838Z" fill="white"/>
<path d="M107.23 3.04891V0.649902H105.948V3.04891H104.622V4.20972H105.948V9.30182C105.948 9.67328 105.983 9.97251 106.054 10.1995C106.124 10.4265 106.23 10.6019 106.37 10.7257C106.521 10.8496 106.712 10.9373 106.943 10.9889C107.184 11.0301 107.471 11.0508 107.803 11.0508H108.783V9.88996H108.195C107.994 9.88996 107.828 9.88481 107.697 9.87448C107.576 9.85385 107.481 9.81773 107.411 9.76613C107.34 9.71455 107.29 9.64232 107.26 9.54945C107.24 9.45659 107.23 9.33276 107.23 9.17799V4.20972H108.783V3.04891H107.23Z" fill="white"/>
<path d="M111.563 1.60966V0H110.282V1.60966H111.563ZM110.282 3.04906V11.0509H111.563V3.04906H110.282Z" fill="white"/>
<path d="M113.548 3.04901V11.0509H114.83V6.53145C114.83 6.17031 114.875 5.84012 114.966 5.5409C115.066 5.23134 115.212 4.96307 115.403 4.73607C115.594 4.50905 115.83 4.33365 116.111 4.20982C116.403 4.08601 116.745 4.0241 117.136 4.0241C117.629 4.0241 118.016 4.16855 118.297 4.45747C118.579 4.74638 118.72 5.13848 118.72 5.63375V11.0509H120.001V5.78852C120.001 5.35517 119.956 4.96307 119.865 4.61224C119.785 4.2511 119.639 3.94155 119.428 3.6836C119.217 3.42564 118.941 3.22442 118.599 3.07997C118.257 2.93551 117.83 2.86328 117.317 2.86328C116.162 2.86328 115.317 3.34825 114.785 4.31817H114.754V3.04901H113.548Z" fill="white"/>
<path d="M128.649 10.3699V3.04901H127.443V4.19435H127.428C127.197 3.75067 126.876 3.42048 126.463 3.2038C126.051 2.97678 125.599 2.86328 125.107 2.86328C124.433 2.86328 123.865 2.99742 123.403 3.2657C122.941 3.52365 122.569 3.85901 122.287 4.27174C122.006 4.67415 121.805 5.12815 121.684 5.63375C121.564 6.12904 121.503 6.614 121.503 7.08864C121.503 7.63551 121.574 8.15658 121.715 8.65187C121.865 9.13683 122.086 9.56504 122.378 9.9365C122.669 10.2976 123.031 10.5866 123.463 10.8032C123.895 11.0199 124.403 11.1283 124.986 11.1283C125.489 11.1283 125.961 11.0148 126.403 10.7878C126.855 10.5504 127.192 10.1841 127.413 9.68885H127.443V10.2151C127.443 10.6588 127.398 11.0664 127.308 11.4378C127.227 11.8093 127.092 12.124 126.901 12.3819C126.71 12.6502 126.468 12.8566 126.177 13.001C125.886 13.1558 125.529 13.2332 125.107 13.2332C124.895 13.2332 124.674 13.2074 124.443 13.1558C124.212 13.1145 123.996 13.0423 123.795 12.9391C123.604 12.8359 123.438 12.7018 123.297 12.5367C123.167 12.3716 123.097 12.1704 123.086 11.9331H121.805C121.825 12.3665 121.936 12.7328 122.137 13.032C122.338 13.3312 122.589 13.5737 122.89 13.7594C123.202 13.9452 123.544 14.0793 123.916 14.1619C124.298 14.2444 124.669 14.2857 125.031 14.2857C126.277 14.2857 127.192 13.9606 127.775 13.3106C128.358 12.6605 128.649 11.6803 128.649 10.3699ZM125.061 9.98292C124.639 9.98292 124.288 9.89522 124.006 9.71981C123.725 9.53408 123.498 9.29677 123.328 9.00785C123.157 8.70861 123.036 8.37842 122.966 8.01728C122.895 7.65615 122.86 7.29501 122.86 6.93387C122.86 6.55208 122.9 6.18578 122.981 5.83497C123.071 5.48414 123.207 5.1746 123.388 4.90631C123.579 4.63804 123.82 4.42651 124.112 4.27174C124.403 4.10664 124.755 4.0241 125.167 4.0241C125.569 4.0241 125.911 4.10664 126.192 4.27174C126.473 4.43682 126.7 4.65868 126.871 4.93727C127.051 5.20555 127.182 5.50994 127.262 5.85044C127.343 6.19094 127.383 6.53661 127.383 6.88744C127.383 7.2589 127.338 7.63035 127.247 8.00181C127.167 8.37327 127.036 8.70861 126.855 9.00785C126.674 9.29677 126.433 9.53408 126.132 9.71981C125.84 9.89522 125.483 9.98292 125.061 9.98292Z" fill="white"/>
<path d="M131.366 8.52804H130.085C130.105 9.02332 130.206 9.44638 130.387 9.7972C130.567 10.1377 130.809 10.4163 131.11 10.633C131.412 10.8394 131.758 10.989 132.15 11.0818C132.542 11.1747 132.954 11.2211 133.387 11.2211C133.779 11.2211 134.171 11.1799 134.563 11.0973C134.965 11.0251 135.321 10.8909 135.633 10.6949C135.955 10.4988 136.211 10.2409 136.402 9.92102C136.603 9.60115 136.703 9.19874 136.703 8.71378C136.703 8.332 136.628 8.01212 136.477 7.75417C136.337 7.49621 136.146 7.28468 135.904 7.1196C135.673 6.94418 135.402 6.80488 135.09 6.7017C134.789 6.59852 134.477 6.51081 134.155 6.43858C133.854 6.36635 133.552 6.29928 133.251 6.23738C132.949 6.16515 132.678 6.08261 132.437 5.98974C132.196 5.88655 131.995 5.76274 131.834 5.61828C131.683 5.46351 131.608 5.27261 131.608 5.04561C131.608 4.83924 131.658 4.67415 131.758 4.55034C131.859 4.4162 131.99 4.31301 132.15 4.24078C132.311 4.15824 132.487 4.10148 132.678 4.07052C132.879 4.03958 133.075 4.0241 133.266 4.0241C133.477 4.0241 133.683 4.0499 133.884 4.10148C134.095 4.14275 134.286 4.21498 134.457 4.31817C134.628 4.42135 134.769 4.56065 134.879 4.73607C134.99 4.90115 135.055 5.11268 135.075 5.37064H136.357C136.327 4.88568 136.226 4.48327 136.055 4.1634C135.884 3.83321 135.653 3.57525 135.362 3.38952C135.08 3.19347 134.754 3.05934 134.382 2.98711C134.01 2.90457 133.603 2.86328 133.161 2.86328C132.819 2.86328 132.472 2.90972 132.12 3.00258C131.779 3.08512 131.467 3.21927 131.185 3.405C130.914 3.58041 130.688 3.81257 130.507 4.10148C130.336 4.3904 130.251 4.73607 130.251 5.13848C130.251 5.6544 130.376 6.05681 130.628 6.34572C130.879 6.63464 131.191 6.86164 131.562 7.02672C131.944 7.18151 132.356 7.30532 132.799 7.3982C133.241 7.48074 133.648 7.57875 134.02 7.69227C134.402 7.79544 134.718 7.93474 134.97 8.11015C135.221 8.28557 135.346 8.54352 135.346 8.88403C135.346 9.13167 135.286 9.33804 135.166 9.50312C135.045 9.6579 134.889 9.77657 134.698 9.85911C134.517 9.94165 134.316 9.99841 134.095 10.0294C133.874 10.0603 133.663 10.0758 133.462 10.0758C133.201 10.0758 132.944 10.05 132.693 9.99841C132.452 9.94681 132.231 9.86427 132.03 9.75077C131.839 9.62695 131.683 9.46701 131.562 9.27097C131.442 9.0646 131.376 8.81695 131.366 8.52804Z" fill="white"/>
</g>
<defs>
<clipPath id="clip0_18_1115">
<rect width="157.843" height="50" fill="white"/>
</clipPath>
</defs>
</svg>
