<svg width="167" height="50" viewBox="0 0 167 50" fill="none" xmlns="http://www.w3.org/2000/svg">
<path d="M28.7931 31.0086L18.8464 29.4938L14.3965 19.9912L9.94672 29.4938L0 31.0086L7.19829 38.3766L5.49687 48.8089L14.3965 43.8855L23.2962 48.8089L21.5948 38.3766L28.7931 31.0086Z" fill="#FFCF01"/>
<path d="M63.3448 31.0086L53.3982 29.4938L48.9483 19.9912L44.4985 29.4938L34.5518 31.0086L41.75 38.3766L40.0486 48.8089L48.9483 43.8855L57.848 48.8089L56.1466 38.3766L63.3448 31.0086Z" fill="#FFCF01"/>
<path d="M97.8964 31.0086L87.9497 29.4938L83.4998 19.9912L79.05 29.4938L69.1033 31.0086L76.3015 38.3766L74.6001 48.8089L83.4998 43.8855L92.3995 48.8089L90.6981 38.3766L97.8964 31.0086Z" fill="#FFCF01"/>
<path d="M132.448 31.0086L122.502 29.4938L118.052 19.9912L113.602 29.4938L103.655 31.0086L110.854 38.3766L109.152 48.8089L118.052 43.8855L126.952 48.8089L125.25 38.3766L132.448 31.0086Z" fill="#FFCF01"/>
<path d="M167 31.0086L157.053 29.4938L152.604 19.9912L148.153 29.4938L138.207 31.0086L145.406 38.3766L143.704 48.8089L152.604 43.8855L161.503 48.8089L159.802 38.3766L167 31.0086Z" fill="#FFCF01"/>
<path d="M4.0332 0V10.4089H5.36247V5.96251H8.60865C8.93514 5.96251 9.19633 6.01597 9.39222 6.12287C9.58811 6.22006 9.74669 6.35613 9.86794 6.53106C9.98921 6.69629 10.0778 6.89551 10.1338 7.12877C10.1898 7.3523 10.2364 7.59041 10.2737 7.84311C10.3204 8.0958 10.3483 8.35334 10.3577 8.61576C10.367 8.87817 10.3763 9.126 10.3857 9.35924C10.395 9.58279 10.4136 9.78687 10.4416 9.97153C10.4789 10.1562 10.5442 10.302 10.6375 10.4089H12.1207C11.9808 10.2339 11.8735 10.0347 11.7989 9.81117C11.7336 9.57791 11.6823 9.33496 11.6449 9.08226C11.6076 8.82957 11.5843 8.57201 11.575 8.30961C11.5657 8.0472 11.5517 7.78966 11.533 7.53696C11.505 7.28427 11.4631 7.0413 11.4071 6.80806C11.3604 6.5748 11.2812 6.36584 11.1692 6.18119C11.0666 5.98681 10.922 5.82159 10.7355 5.68553C10.5582 5.54946 10.325 5.45227 10.0359 5.39396V5.3648C10.6422 5.18986 11.0806 4.86429 11.3511 4.38806C11.631 3.91183 11.7709 3.35786 11.7709 2.72614C11.7709 1.8806 11.5004 1.21486 10.9593 0.728913C10.4276 0.242971 9.68605 0 8.73458 0H4.0332ZM8.13291 4.79624H5.36247V1.16626H8.66461C9.28961 1.16626 9.74202 1.33148 10.0219 1.66193C10.3017 1.99236 10.4416 2.41999 10.4416 2.94481C10.4416 3.32384 10.3763 3.63484 10.2457 3.87781C10.1245 4.11107 9.95656 4.30059 9.74202 4.44637C9.5368 4.58243 9.29427 4.67477 9.01443 4.72336C8.73458 4.77196 8.44075 4.79624 8.13291 4.79624Z" fill="white"/>
<path d="M19.8243 10.3795C19.6192 10.5059 19.3346 10.569 18.9709 10.569C18.663 10.569 18.4158 10.4816 18.2292 10.3066C18.052 10.122 17.9635 9.82555 17.9635 9.41735C17.6369 9.82555 17.2545 10.122 16.816 10.3066C16.387 10.4816 15.9205 10.569 15.4168 10.569C15.0903 10.569 14.7779 10.5302 14.4793 10.4524C14.1902 10.3747 13.9383 10.2532 13.7238 10.0879C13.5092 9.92273 13.3367 9.70892 13.2061 9.44651C13.0848 9.17438 13.0242 8.84881 13.0242 8.46976C13.0242 8.04213 13.0941 7.69226 13.234 7.42014C13.374 7.14801 13.5559 6.92934 13.7798 6.76411C14.013 6.58916 14.2742 6.45796 14.5634 6.37049C14.8618 6.28302 15.165 6.21013 15.4727 6.15182C15.7993 6.08379 16.107 6.03519 16.3962 6.00603C16.6948 5.96716 16.956 5.91856 17.1798 5.86025C17.4037 5.79222 17.5809 5.69989 17.7115 5.58326C17.8421 5.45692 17.9075 5.27712 17.9075 5.04388C17.9075 4.77175 17.8561 4.55308 17.7535 4.38785C17.6603 4.22263 17.5343 4.09629 17.3757 4.00882C17.2265 3.92135 17.054 3.86303 16.858 3.83388C16.6714 3.80472 16.4849 3.79013 16.2983 3.79013C15.7946 3.79013 15.3748 3.89219 15.0391 4.09629C14.7032 4.29066 14.5213 4.66483 14.4933 5.21881H13.304C13.3227 4.75231 13.416 4.35869 13.5838 4.03798C13.7518 3.71725 13.9756 3.45971 14.2555 3.26532C14.5354 3.06123 14.8525 2.91545 15.207 2.82798C15.5708 2.74051 15.9579 2.69678 16.3683 2.69678C16.6948 2.69678 17.0166 2.72106 17.3337 2.76966C17.6603 2.81826 17.954 2.92031 18.2152 3.07581C18.4764 3.22159 18.6863 3.43055 18.8448 3.70268C19.0034 3.97481 19.0828 4.32953 19.0828 4.76689V8.64471C19.0828 8.93626 19.0968 9.15008 19.1248 9.28615C19.162 9.42221 19.2741 9.49025 19.4606 9.49025C19.5632 9.49025 19.6844 9.46595 19.8243 9.41735V10.3795ZM17.8934 6.51628C17.7442 6.63291 17.5482 6.72038 17.3057 6.77869C17.0632 6.82728 16.8067 6.87102 16.5363 6.90989C16.275 6.93905 16.0091 6.97792 15.7386 7.02652C15.4682 7.06539 15.2257 7.13342 15.0111 7.23061C14.7965 7.32781 14.6193 7.46872 14.4793 7.65338C14.3487 7.82832 14.2835 8.07129 14.2835 8.38229C14.2835 8.58639 14.3207 8.76133 14.3954 8.90711C14.4793 9.04318 14.5819 9.15495 14.7032 9.24241C14.8339 9.32988 14.983 9.39305 15.151 9.43193C15.3189 9.47081 15.4961 9.49025 15.6827 9.49025C16.0745 9.49025 16.4102 9.43679 16.6901 9.32988C16.97 9.21326 17.1985 9.07233 17.3757 8.90711C17.553 8.73218 17.6836 8.54752 17.7675 8.35314C17.8514 8.14905 17.8934 7.95952 17.8934 7.78459V6.51628Z" fill="white"/>
<path d="M22.5825 2.87193V0.612305H21.3931V2.87193H20.1619V3.9653H21.3931V8.76156C21.3931 9.11143 21.4258 9.39327 21.4912 9.60709C21.5564 9.8209 21.6543 9.98613 21.7849 10.1028C21.9249 10.2194 22.1021 10.302 22.3166 10.3506C22.5405 10.3895 22.8063 10.4089 23.1142 10.4089H24.0237V9.31553H23.478C23.2915 9.31553 23.1375 9.31067 23.0163 9.30095C22.9044 9.28152 22.8157 9.2475 22.7504 9.1989C22.6851 9.1503 22.6385 9.08227 22.6105 8.9948C22.5918 8.90735 22.5825 8.79072 22.5825 8.64493V3.9653H24.0237V2.87193H22.5825Z" fill="white"/>
<path d="M26.6041 1.51614V0H25.4148V1.51614H26.6041ZM25.4148 2.87191V10.4089H26.6041V2.87191H25.4148Z" fill="white"/>
<path d="M28.4468 2.87171V10.4087H29.636V6.15182C29.636 5.81166 29.678 5.50066 29.7621 5.21881C29.8553 4.92725 29.9906 4.67456 30.1677 4.46073C30.345 4.24692 30.5643 4.08171 30.8255 3.96508C31.0959 3.84845 31.4131 3.79013 31.7769 3.79013C32.234 3.79013 32.5931 3.92621 32.8543 4.19833C33.1155 4.47046 33.2461 4.83978 33.2461 5.30628V10.4087H34.4354V5.45206C34.4354 5.04388 34.3934 4.67456 34.3095 4.34412C34.2348 4.00395 34.0997 3.71239 33.9037 3.46942C33.7078 3.22645 33.4514 3.03693 33.1342 2.90086C32.817 2.76481 32.4205 2.69678 31.9448 2.69678C30.8721 2.69678 30.0885 3.15356 29.5941 4.06713H29.5661V2.87171H28.4468Z" fill="white"/>
<path d="M42.4622 9.76723V2.87171H41.3428V3.95051H41.3288C41.1143 3.53259 40.8157 3.22159 40.4333 3.01749C40.0508 2.80368 39.631 2.69678 39.174 2.69678C38.5491 2.69678 38.022 2.82312 37.5929 3.07581C37.1638 3.31878 36.8187 3.63463 36.5575 4.02339C36.2963 4.40243 36.1097 4.83006 35.9978 5.30628C35.8858 5.77279 35.8298 6.22958 35.8298 6.67663C35.8298 7.19173 35.8952 7.68253 36.0258 8.14905C36.1657 8.60583 36.3709 9.00916 36.6414 9.35903C36.9119 9.69919 37.2478 9.97132 37.6488 10.1754C38.0499 10.3795 38.521 10.4816 39.0621 10.4816C39.5285 10.4816 39.9669 10.3747 40.3774 10.1608C40.7972 9.93731 41.1096 9.59229 41.3149 9.12579H41.3428V9.62145C41.3428 10.0394 41.3009 10.4232 41.2168 10.7731C41.1423 11.123 41.0163 11.4194 40.8391 11.6624C40.6618 11.9151 40.4379 12.1095 40.1674 12.2455C39.8969 12.3913 39.5658 12.4642 39.174 12.4642C38.9781 12.4642 38.7729 12.4399 38.5584 12.3913C38.3438 12.3524 38.1433 12.2844 37.9567 12.1872C37.7795 12.09 37.6256 11.9637 37.495 11.8082C37.3737 11.6527 37.3084 11.4632 37.299 11.2396H36.1097C36.1284 11.6478 36.2309 11.9928 36.4175 12.2747C36.6042 12.5565 36.8373 12.7849 37.1172 12.9599C37.4063 13.1348 37.7235 13.2611 38.0686 13.3389C38.423 13.4167 38.7682 13.4555 39.104 13.4555C40.2608 13.4555 41.1096 13.1494 41.6506 12.5371C42.1917 11.9248 42.4622 11.0015 42.4622 9.76723ZM39.132 9.40278C38.7402 9.40278 38.4138 9.32016 38.1526 9.15495C37.8914 8.98001 37.6815 8.75648 37.523 8.48435C37.3644 8.20249 37.2525 7.89149 37.1871 7.55133C37.1219 7.21118 37.0892 6.87102 37.0892 6.53085C37.0892 6.17126 37.1264 5.82623 37.2011 5.49579C37.285 5.16536 37.4111 4.87379 37.5789 4.62111C37.7562 4.36841 37.98 4.16918 38.2505 4.02339C38.521 3.86789 38.8475 3.79013 39.2299 3.79013C39.603 3.79013 39.9202 3.86789 40.1814 4.02339C40.4426 4.17889 40.6526 4.38785 40.8111 4.65026C40.979 4.90295 41.1002 5.18965 41.1748 5.51038C41.2495 5.83109 41.2869 6.15668 41.2869 6.48712C41.2869 6.83701 41.2448 7.18688 41.1608 7.53675C41.0862 7.88663 40.965 8.20249 40.7972 8.48435C40.6292 8.75648 40.4053 8.98001 40.1254 9.15495C39.855 9.32016 39.5238 9.40278 39.132 9.40278Z" fill="white"/>
<path d="M46.0751 4.49026V2.87207H44.522V4.49026H46.0751ZM44.522 8.79086V10.409H46.0751V8.79086H44.522Z" fill="white"/>
<path d="M55.8926 6.89538H52.5624L55.8646 1.83672H55.8926V6.89538ZM57.0119 6.89538V0.0727539H56.0604L51.541 6.79333V7.98875H55.8926V10.4087H57.0119V7.98875H58.3552V6.89538H57.0119Z" fill="white"/>
<path d="M60.0857 8.79053V10.4087H61.6388V8.79053H60.0857Z" fill="white"/>
<path d="M63.4341 3.73191H64.6235C64.614 3.42089 64.642 3.11475 64.7074 2.81346C64.782 2.50246 64.8987 2.22548 65.0572 1.98251C65.2158 1.73953 65.4164 1.54516 65.6589 1.39938C65.9107 1.24388 66.2093 1.16612 66.5544 1.16612C66.8156 1.16612 67.0627 1.20986 67.2959 1.29733C67.5291 1.3848 67.7297 1.51115 67.8975 1.67636C68.0748 1.84158 68.2147 2.04082 68.3173 2.27408C68.4199 2.49761 68.4713 2.75029 68.4713 3.03215C68.4713 3.39173 68.4154 3.70761 68.3033 3.97973C68.2007 4.25186 68.0421 4.50455 67.8276 4.73781C67.6225 4.97105 67.3613 5.20431 67.0441 5.43756C66.727 5.66109 66.3584 5.90892 65.9386 6.18105C65.5935 6.39486 65.2624 6.62325 64.9452 6.86622C64.628 7.10919 64.3436 7.39105 64.0918 7.71176C63.8399 8.03249 63.63 8.41152 63.462 8.84888C63.3035 9.27651 63.2008 9.79646 63.1543 10.4087H69.6326V9.31538H64.5394C64.5955 8.99465 64.7121 8.71281 64.8892 8.46983C65.0758 8.21715 65.295 7.98389 65.547 7.77008C65.808 7.55626 66.0926 7.35703 66.4004 7.17238C66.7083 6.97799 67.0161 6.78362 67.3239 6.58923C67.6318 6.38515 67.9302 6.17133 68.2194 5.94779C68.5086 5.72426 68.7651 5.47643 68.989 5.20431C69.2128 4.92246 69.3901 4.60659 69.5207 4.25672C69.6606 3.90683 69.7305 3.50351 69.7305 3.04672C69.7305 2.56078 69.6466 2.13315 69.4787 1.76383C69.3202 1.39452 69.1009 1.08837 68.821 0.845403C68.5413 0.592713 68.2101 0.403194 67.8276 0.27685C67.4545 0.140786 67.0534 0.0727539 66.6243 0.0727539C66.1019 0.0727539 65.6355 0.165083 65.2251 0.349741C64.8146 0.5344 64.4695 0.791948 64.1897 1.12239C63.9192 1.44311 63.7185 1.82701 63.5881 2.27408C63.4575 2.72113 63.4061 3.20708 63.4341 3.73191Z" fill="white"/>
<path d="M75.1875 5.77295V6.93921H79.2312V5.77295H75.1875Z" fill="white"/>
<path d="M88.8018 10.4087V0.0727539H87.8923C87.8269 0.461508 87.7057 0.78223 87.5284 1.03492C87.3511 1.28761 87.1319 1.48685 86.8708 1.63263C86.6189 1.77841 86.3344 1.88046 86.0173 1.93878C85.7001 1.98736 85.3736 2.01166 85.0378 2.01166V3.00299H87.6124V10.4087H88.8018Z" fill="white"/>
<path d="M93.7643 2.75515C93.7643 2.49275 93.811 2.26435 93.9042 2.06998C93.9976 1.87561 94.1187 1.71038 94.268 1.57432C94.4266 1.43825 94.6132 1.3362 94.8277 1.26817C95.0422 1.20014 95.2662 1.16612 95.4994 1.16612C95.9844 1.16612 96.3808 1.30219 96.6887 1.57432C97.0058 1.83672 97.1644 2.23033 97.1644 2.75515C97.1644 3.27998 97.0106 3.68816 96.7027 3.97973C96.3948 4.27129 96.0031 4.41708 95.5274 4.41708C95.2847 4.41708 95.0562 4.38306 94.8417 4.31503C94.6272 4.24699 94.4406 4.14495 94.282 4.00889C94.1235 3.87282 93.9976 3.70275 93.9042 3.49865C93.811 3.28483 93.7643 3.03701 93.7643 2.75515ZM92.505 2.71142C92.505 3.17792 92.631 3.61042 92.8828 4.00889C93.1347 4.39763 93.4704 4.67949 93.8902 4.85442C93.3306 5.05852 92.9015 5.38896 92.6029 5.84575C92.3044 6.29282 92.1553 6.82249 92.1553 7.43478C92.1553 7.95959 92.2392 8.42125 92.4071 8.81972C92.5843 9.20846 92.8221 9.53405 93.1207 9.79646C93.4285 10.0589 93.7876 10.2532 94.1981 10.3796C94.6085 10.5059 95.0517 10.5691 95.5274 10.5691C95.9844 10.5691 96.4135 10.5011 96.8146 10.365C97.2157 10.2289 97.5608 10.0297 97.85 9.76731C98.1486 9.49518 98.3818 9.16473 98.5497 8.77598C98.7269 8.38722 98.8154 7.94016 98.8154 7.43478C98.8154 6.79333 98.6709 6.25393 98.3817 5.81659C98.0926 5.36952 97.6494 5.04881 97.0525 4.85442C97.4723 4.66005 97.8035 4.37335 98.046 3.99431C98.2977 3.60555 98.4238 3.17792 98.4238 2.71142C98.4238 2.38098 98.3677 2.06026 98.2558 1.74925C98.1439 1.42853 97.9666 1.14669 97.7241 0.903715C97.4909 0.651025 97.1831 0.45179 96.8006 0.306007C96.4182 0.150505 95.9565 0.0727539 95.4153 0.0727539C95.033 0.0727539 94.6644 0.131067 94.31 0.247694C93.9649 0.36432 93.657 0.534398 93.3865 0.757933C93.116 0.981466 92.9015 1.25845 92.7429 1.58889C92.5843 1.90962 92.505 2.28379 92.505 2.71142ZM93.4145 7.49309C93.4145 7.19181 93.4659 6.91968 93.5685 6.67671C93.6804 6.43373 93.8296 6.22478 94.0161 6.04985C94.2121 5.87491 94.4359 5.74371 94.6878 5.65623C94.949 5.55905 95.2242 5.51045 95.5134 5.51045C95.7932 5.51045 96.0544 5.56391 96.2969 5.67081C96.5488 5.76799 96.768 5.90406 96.9546 6.07901C97.1412 6.25393 97.2858 6.46289 97.3882 6.70586C97.5003 6.93912 97.5562 7.19666 97.5562 7.47852C97.5562 7.77008 97.5048 8.03735 97.4022 8.28032C97.309 8.52329 97.1691 8.73711 96.9826 8.92176C96.8053 9.09671 96.5908 9.23762 96.3388 9.34453C96.0963 9.44172 95.8259 9.49032 95.5274 9.49032C94.9116 9.49032 94.4033 9.31538 94.0021 8.96549C93.6105 8.60591 93.4145 8.11509 93.4145 7.49309Z" fill="white"/>
<path d="M100.532 8.79053V10.4087H101.357C101.367 10.5253 101.357 10.6517 101.329 10.7877C101.311 10.9238 101.269 11.055 101.203 11.1814C101.138 11.3174 101.049 11.4389 100.938 11.5458C100.835 11.6624 100.704 11.7499 100.546 11.8082V12.5371C101.087 12.3719 101.478 12.0901 101.721 11.6916C101.964 11.2931 102.085 10.8169 102.085 10.2629V8.79053H100.532Z" fill="white"/>
<path d="M109.841 1.34142V0.248047H104.944L104.02 5.61284L105.042 5.67116C105.275 5.3796 105.541 5.14634 105.839 4.9714C106.147 4.78674 106.497 4.69442 106.889 4.69442C107.224 4.69442 107.528 4.75273 107.798 4.86936C108.078 4.98599 108.316 5.1512 108.512 5.36502C108.708 5.56912 108.857 5.81694 108.96 6.10851C109.071 6.39036 109.127 6.70136 109.127 7.04151C109.127 7.44971 109.071 7.8093 108.96 8.12032C108.848 8.4216 108.694 8.67429 108.498 8.87839C108.311 9.08247 108.087 9.23797 107.826 9.34489C107.574 9.44207 107.308 9.49067 107.029 9.49067C106.73 9.49067 106.455 9.44693 106.203 9.35946C105.961 9.26227 105.746 9.13107 105.559 8.96584C105.382 8.79091 105.238 8.59167 105.126 8.36814C105.023 8.13489 104.962 7.88706 104.944 7.62464H103.754C103.764 8.09116 103.852 8.50906 104.02 8.87839C104.188 9.2477 104.417 9.5587 104.706 9.81139C104.995 10.0544 105.326 10.2439 105.699 10.3799C106.082 10.5063 106.487 10.5695 106.917 10.5695C107.495 10.5695 107.999 10.4771 108.428 10.2925C108.866 10.0981 109.23 9.84054 109.519 9.51983C109.808 9.1991 110.023 8.83464 110.163 8.42646C110.312 8.00854 110.387 7.58091 110.387 7.14357C110.387 6.55071 110.303 6.03561 110.135 5.59827C109.967 5.1512 109.738 4.78189 109.449 4.49032C109.16 4.18904 108.82 3.9655 108.428 3.81972C108.036 3.67394 107.621 3.60104 107.182 3.60104C106.847 3.60104 106.506 3.66422 106.161 3.79056C105.825 3.90719 105.55 4.09184 105.335 4.34454L105.307 4.31539L105.839 1.34142H109.841Z" fill="white"/>
<path d="M113.209 2.75515C113.209 2.49275 113.255 2.26435 113.348 2.06998C113.442 1.87561 113.563 1.71038 113.712 1.57432C113.871 1.43825 114.057 1.3362 114.272 1.26817C114.486 1.20014 114.71 1.16612 114.943 1.16612C115.429 1.16612 115.825 1.30219 116.133 1.57432C116.45 1.83672 116.609 2.23033 116.609 2.75515C116.609 3.27998 116.455 3.68816 116.147 3.97973C115.839 4.27129 115.447 4.41708 114.971 4.41708C114.729 4.41708 114.5 4.38306 114.286 4.31503C114.071 4.24699 113.885 4.14495 113.726 4.00889C113.568 3.87282 113.442 3.70275 113.348 3.49865C113.255 3.28483 113.209 3.03701 113.209 2.75515ZM111.949 2.71142C111.949 3.17792 112.075 3.61042 112.327 4.00889C112.579 4.39763 112.915 4.67949 113.334 4.85442C112.775 5.05852 112.346 5.38896 112.047 5.84575C111.749 6.29282 111.599 6.82249 111.599 7.43478C111.599 7.95959 111.683 8.42125 111.851 8.81972C112.029 9.20846 112.266 9.53405 112.565 9.79646C112.873 10.0589 113.232 10.2532 113.642 10.3796C114.053 10.5059 114.496 10.5691 114.971 10.5691C115.429 10.5691 115.858 10.5011 116.259 10.365C116.66 10.2289 117.005 10.0297 117.294 9.76731C117.593 9.49518 117.826 9.16473 117.994 8.77598C118.171 8.38722 118.26 7.94016 118.26 7.43478C118.26 6.79333 118.115 6.25393 117.826 5.81659C117.537 5.36952 117.094 5.04881 116.497 4.85442C116.917 4.66005 117.248 4.37335 117.49 3.99431C117.742 3.60555 117.868 3.17792 117.868 2.71142C117.868 2.38098 117.812 2.06026 117.7 1.74925C117.588 1.42853 117.411 1.14669 117.168 0.903715C116.935 0.651025 116.627 0.45179 116.245 0.306007C115.862 0.150505 115.401 0.0727539 114.86 0.0727539C114.477 0.0727539 114.109 0.131067 113.754 0.247694C113.409 0.36432 113.101 0.534398 112.831 0.757933C112.56 0.981466 112.346 1.25845 112.187 1.58889C112.029 1.90962 111.949 2.28379 111.949 2.71142ZM112.859 7.49309C112.859 7.19181 112.91 6.91968 113.013 6.67671C113.125 6.43373 113.274 6.22478 113.46 6.04985C113.656 5.87491 113.88 5.74371 114.132 5.65623C114.393 5.55905 114.668 5.51045 114.957 5.51045C115.237 5.51045 115.499 5.56391 115.741 5.67081C115.993 5.76799 116.212 5.90406 116.399 6.07901C116.585 6.25393 116.73 6.46289 116.832 6.70586C116.945 6.93912 117 7.19666 117 7.47852C117 7.77008 116.949 8.03735 116.846 8.28032C116.753 8.52329 116.613 8.73711 116.427 8.92176C116.25 9.09671 116.035 9.23762 115.783 9.34453C115.541 9.44172 115.27 9.49032 114.971 9.49032C114.356 9.49032 113.847 9.31538 113.446 8.96549C113.055 8.60591 112.859 8.11509 112.859 7.49309Z" fill="white"/>
<path d="M125.937 1.31226V0.248047H119.514V1.41431H124.719C124.197 1.98772 123.707 2.61459 123.25 3.2949C122.802 3.97523 122.406 4.69927 122.061 5.46707C121.716 6.22513 121.431 7.02209 121.207 7.8579C120.993 8.684 120.857 9.5344 120.801 10.4091H122.131C122.177 9.60243 122.308 8.77147 122.522 7.91622C122.737 7.06096 123.012 6.23 123.348 5.42333C123.693 4.61667 124.085 3.8586 124.523 3.14912C124.962 2.43964 125.433 1.82736 125.937 1.31226Z" fill="white"/>
<path d="M134.639 10.409L137.284 2.87207H136.039L134.066 9.15531H134.038L132.009 2.87207H130.68L133.366 10.409H134.639Z" fill="white"/>
<path d="M139.243 6.64748C139.243 6.19069 139.299 5.78736 139.411 5.43749C139.532 5.07789 139.695 4.77661 139.901 4.53363C140.106 4.29066 140.344 4.10601 140.614 3.97966C140.894 3.85332 141.188 3.79013 141.496 3.79013C141.804 3.79013 142.093 3.85332 142.363 3.97966C142.643 4.10601 142.885 4.29066 143.09 4.53363C143.296 4.77661 143.454 5.07789 143.567 5.43749C143.687 5.78736 143.748 6.19069 143.748 6.64748C143.748 7.10426 143.687 7.51246 143.567 7.87206C143.454 8.22193 143.296 8.51836 143.09 8.76133C142.885 8.99458 142.643 9.17438 142.363 9.30072C142.093 9.42708 141.804 9.49025 141.496 9.49025C141.188 9.49025 140.894 9.42708 140.614 9.30072C140.344 9.17438 140.106 8.99458 139.901 8.76133C139.695 8.51836 139.532 8.22193 139.411 7.87206C139.299 7.51246 139.243 7.10426 139.243 6.64748ZM137.984 6.64748C137.984 7.20145 138.058 7.71655 138.207 8.19278C138.357 8.66901 138.581 9.08691 138.879 9.44651C139.178 9.79639 139.546 10.0734 139.984 10.2775C140.423 10.4718 140.927 10.569 141.496 10.569C142.074 10.569 142.578 10.4718 143.006 10.2775C143.446 10.0734 143.814 9.79639 144.112 9.44651C144.411 9.08691 144.635 8.66901 144.783 8.19278C144.933 7.71655 145.007 7.20145 145.007 6.64748C145.007 6.09351 144.933 5.57841 144.783 5.10219C144.635 4.61625 144.411 4.19833 144.112 3.84845C143.814 3.48886 143.446 3.20701 143.006 3.00292C142.578 2.79882 142.074 2.69678 141.496 2.69678C140.927 2.69678 140.423 2.79882 139.984 3.00292C139.546 3.20701 139.178 3.48886 138.879 3.84845C138.581 4.19833 138.357 4.61625 138.207 5.10219C138.058 5.57841 137.984 6.09351 137.984 6.64748Z" fill="white"/>
<path d="M148.06 2.87193V0.612305H146.871V2.87193H145.641V3.9653H146.871V8.76156C146.871 9.11143 146.904 9.39327 146.97 9.60709C147.036 9.8209 147.133 9.98613 147.264 10.1028C147.404 10.2194 147.581 10.302 147.795 10.3506C148.019 10.3895 148.285 10.4089 148.593 10.4089H149.502V9.31553H148.957C148.77 9.31553 148.616 9.31067 148.494 9.30095C148.383 9.28152 148.295 9.2475 148.229 9.1989C148.163 9.1503 148.118 9.08227 148.089 8.9948C148.07 8.90735 148.06 8.79072 148.06 8.64493V3.9653H149.502V2.87193H148.06Z" fill="white"/>
<path d="M155.847 5.91856H151.692C151.71 5.62701 151.77 5.35488 151.873 5.10219C151.976 4.83978 152.116 4.61138 152.293 4.41701C152.47 4.22263 152.679 4.07199 152.922 3.96508C153.175 3.84845 153.455 3.79013 153.761 3.79013C154.061 3.79013 154.331 3.84845 154.574 3.96508C154.825 4.07199 155.04 4.22263 155.217 4.41701C155.404 4.60166 155.548 4.82519 155.651 5.08761C155.763 5.35002 155.828 5.62701 155.847 5.91856ZM156.994 8.01783H155.818C155.717 8.51351 155.501 8.88282 155.174 9.12579C154.858 9.36876 154.448 9.49025 153.944 9.49025C153.552 9.49025 153.212 9.42221 152.922 9.28615C152.634 9.15008 152.395 8.97029 152.208 8.74675C152.023 8.51351 151.887 8.25109 151.803 7.95952C151.719 7.65823 151.682 7.34238 151.692 7.01194H157.106C157.124 6.55515 157.083 6.07406 156.98 5.56869C156.887 5.06331 156.71 4.59681 156.449 4.16918C156.196 3.74155 155.857 3.39166 155.427 3.11953C155.007 2.83769 154.475 2.69678 153.831 2.69678C153.337 2.69678 152.881 2.79396 152.461 2.98833C152.05 3.18272 151.692 3.45483 151.383 3.80472C151.085 4.15459 150.851 4.56765 150.684 5.04388C150.516 5.52009 150.431 6.04492 150.431 6.61832C150.45 7.19173 150.53 7.72142 150.67 8.20736C150.82 8.69329 151.038 9.11121 151.328 9.46109C151.616 9.81096 151.972 10.0831 152.391 10.2775C152.819 10.4718 153.323 10.569 153.901 10.569C154.723 10.569 155.404 10.3552 155.945 9.92759C156.486 9.49996 156.836 8.86338 156.994 8.01783Z" fill="white"/>
<path d="M159.067 8.03242H157.878C157.896 8.49892 157.989 8.89739 158.157 9.22783C158.324 9.54856 158.549 9.81096 158.828 10.0151C159.108 10.2094 159.431 10.3504 159.795 10.4378C160.157 10.5253 160.54 10.569 160.941 10.569C161.305 10.569 161.669 10.5302 162.033 10.4524C162.405 10.3844 162.736 10.258 163.026 10.0734C163.324 9.88872 163.563 9.64575 163.74 9.34446C163.927 9.04318 164.02 8.66415 164.02 8.20736C164.02 7.84776 163.95 7.54648 163.81 7.30351C163.678 7.06053 163.501 6.86129 163.277 6.70579C163.063 6.54058 162.812 6.40936 162.522 6.31218C162.243 6.21499 161.953 6.13238 161.654 6.06435C161.375 5.99632 161.095 5.93315 160.815 5.87484C160.535 5.80681 160.284 5.72905 160.06 5.64158C159.836 5.54439 159.649 5.42776 159.501 5.29171C159.361 5.14592 159.291 4.96612 159.291 4.75231C159.291 4.55793 159.336 4.40243 159.431 4.28581C159.523 4.15946 159.645 4.06226 159.795 3.99423C159.943 3.91649 160.106 3.86303 160.284 3.83388C160.47 3.80472 160.652 3.79013 160.829 3.79013C161.025 3.79013 161.216 3.81443 161.403 3.86303C161.599 3.90191 161.776 3.96993 161.934 4.06713C162.093 4.16432 162.224 4.29552 162.327 4.46073C162.43 4.61625 162.489 4.81548 162.508 5.05845H163.698C163.67 4.60166 163.577 4.22263 163.417 3.92135C163.259 3.61035 163.045 3.36738 162.775 3.19243C162.514 3.00778 162.21 2.88143 161.864 2.81339C161.52 2.73565 161.142 2.69678 160.731 2.69678C160.414 2.69678 160.093 2.74051 159.766 2.82798C159.449 2.90572 159.159 3.03208 158.898 3.20701C158.647 3.37223 158.437 3.59091 158.269 3.86303C158.11 4.13516 158.03 4.46073 158.03 4.83978C158.03 5.32572 158.147 5.70475 158.38 5.97688C158.614 6.24901 158.903 6.46282 159.248 6.61832C159.603 6.76411 159.984 6.88073 160.396 6.96821C160.807 7.04595 161.183 7.13828 161.529 7.24519C161.883 7.34238 162.177 7.47358 162.411 7.63881C162.644 7.80402 162.761 8.04699 162.761 8.36772C162.761 8.60096 162.705 8.79535 162.592 8.95085C162.481 9.09663 162.335 9.20839 162.158 9.28615C161.991 9.36389 161.804 9.41735 161.599 9.44651C161.393 9.47566 161.198 9.49025 161.011 9.49025C160.768 9.49025 160.531 9.46595 160.297 9.41735C160.074 9.36876 159.869 9.29101 159.682 9.18411C159.505 9.06748 159.361 8.91683 159.248 8.73218C159.137 8.53779 159.075 8.30455 159.067 8.03242Z" fill="white"/>
</svg>
