<svg width="92" height="60" viewBox="0 0 92 60" fill="none" xmlns="http://www.w3.org/2000/svg">
<g clip-path="url(#clip0_18_1061)">
<mask id="mask0_18_1061" style="mask-type:luminance" maskUnits="userSpaceOnUse" x="0" y="0" width="92" height="60">
<path d="M92 0H0V60H92V0Z" fill="white"/>
</mask>
<g mask="url(#mask0_18_1061)">
<path d="M91.5553 19.8082C88.0602 4.21758 64.8366 -3.83621 39.6745 1.7971C14.5124 7.4304 -3.05033 24.6395 0.444812 40.206C3.93995 55.7725 27.1635 63.8359 52.3256 58.2026C77.4877 52.5693 95.0505 35.3698 91.5553 19.8082ZM85.8558 11.9573C86.227 11.9564 86.5901 12.0655 86.8992 12.2709C87.2083 12.4763 87.4494 12.7687 87.5921 13.1112C87.7348 13.4536 87.7727 13.8307 87.7008 14.1946C87.629 14.5586 87.4508 14.893 87.1886 15.1557C86.9265 15.4183 86.5923 15.5973 86.2283 15.6701C85.8643 15.7428 85.487 15.7059 85.1439 15.5642C84.8009 15.4225 84.5077 15.1822 84.3014 14.8738C84.0951 14.5655 83.9849 14.2028 83.9849 13.8319C83.9849 13.3356 84.1819 12.8595 84.5326 12.5081C84.8833 12.1567 85.3592 11.9586 85.8558 11.9573ZM36.3921 2.97111C36.7636 2.97112 37.1269 3.08143 37.4356 3.28806C37.7444 3.49468 37.9848 3.78831 38.1263 4.13168C38.2678 4.47506 38.3041 4.85271 38.2306 5.21672C38.157 5.58074 37.9769 5.91472 37.7131 6.17629C37.4494 6.43787 37.1138 6.61525 36.749 6.68593C36.3842 6.75662 36.0066 6.71742 35.6642 6.57331C35.3217 6.42921 35.0298 6.18669 34.8254 5.87652C34.6211 5.56635 34.5135 5.20251 34.5164 4.83116C34.5164 4.58522 34.5649 4.34169 34.6593 4.11453C34.7536 3.88737 34.8918 3.68104 35.066 3.50736C35.2403 3.33368 35.4471 3.19605 35.6746 3.10238C35.9022 3.0087 36.146 2.96081 36.3921 2.96144M6.41991 47.8926C6.04893 47.8926 5.68629 47.7827 5.37784 47.5767C5.06938 47.3707 4.82897 47.0779 4.68701 46.7354C4.54504 46.3929 4.5079 46.016 4.58027 45.6523C4.65264 45.2887 4.83128 44.9547 5.0936 44.6925C5.35592 44.4304 5.69013 44.2518 6.05398 44.1795C6.41782 44.1072 6.79496 44.1443 7.1377 44.2862C7.48043 44.4281 7.77337 44.6683 7.97947 44.9766C8.18558 45.2849 8.29558 45.6473 8.29558 46.018C8.29558 46.5152 8.09797 46.992 7.74621 47.3436C7.39445 47.6951 6.91737 47.8926 6.41991 47.8926ZM55.8885 56.8788C55.5171 56.8798 55.1538 56.7705 54.8446 56.5649C54.5354 56.3593 54.2942 56.0666 54.1517 55.7239C54.0091 55.3811 53.9715 55.0038 54.0438 54.6398C54.116 54.2757 54.2947 53.9412 54.5573 53.6788C54.8199 53.4163 55.1546 53.2377 55.5189 53.1655C55.8832 53.0933 56.2607 53.1309 56.6037 53.2733C56.9466 53.4158 57.2395 53.6568 57.4452 53.9659C57.6509 54.2749 57.7603 54.6379 57.7593 55.0091C57.758 55.5046 57.5605 55.9794 57.2099 56.3298C56.8594 56.6802 56.3842 56.8775 55.8885 56.8788ZM48.3422 53.7288C24.4274 56.0865 3.98829 47.3756 2.69272 34.2683C1.39715 21.161 19.7382 8.62857 43.6579 6.28055C67.5776 3.93254 88.0118 12.6337 89.3074 25.7362C90.603 38.8387 72.2571 51.3808 48.3422 53.7578" fill="#13CA60"/>
</g>
<path d="M19.3997 21.4849V29.1328H17.2823V21.4849H14.5945V19.6538H22.0875V21.4849H19.3997Z" fill="#092335"/>
<path d="M30.9389 22.799C30.9389 24.316 30.3347 25.2968 29.1358 25.7413L31.5529 29.1232H28.9279L26.8202 26.0891H25.3699V29.1328H23.238V19.6538H26.8347C28.3107 19.6538 29.363 19.9018 29.9914 20.3978C30.6199 20.8938 30.9357 21.6942 30.9389 22.799ZM28.3865 23.9247C28.5281 23.7765 28.6366 23.5999 28.705 23.4067C28.7733 23.2135 28.7998 23.008 28.7829 22.8038C28.8084 22.606 28.7837 22.405 28.711 22.2192C28.6384 22.0335 28.5201 21.869 28.3671 21.7409C27.9299 21.5135 27.4371 21.4146 26.9459 21.4559H25.3554V24.2629H26.9024C27.4197 24.3237 27.9422 24.2042 28.3816 23.9247H28.3865Z" fill="#092335"/>
<path d="M40.0949 29.1328L39.2103 27.0844H35.2365L34.3519 29.1328H32.0991L36.1985 19.6538H38.2482L42.3477 29.1328H40.0949ZM37.2234 22.4753L36.0293 25.2243H38.4078L37.2234 22.4753Z" fill="#092335"/>
<path d="M50.276 20.8906C50.7373 21.3351 51.0975 21.8738 51.3319 22.4699C51.5663 23.0659 51.6695 23.7055 51.6344 24.345C51.6634 24.9903 51.5575 25.6346 51.3237 26.2369C51.0898 26.8391 50.733 27.386 50.276 27.8429C49.3962 28.7028 48.0474 29.1328 46.2394 29.1328H43.0247V19.6538H46.3796C48.0619 19.6538 49.3607 20.0661 50.276 20.8906ZM48.7242 26.5288C48.9967 26.2482 49.2072 25.9136 49.3422 25.5466C49.4771 25.1795 49.5333 24.7883 49.5073 24.3982C49.5319 24.0052 49.475 23.6115 49.3403 23.2415C49.2055 22.8716 48.9958 22.5334 48.7242 22.2482C48.0482 21.691 47.1799 21.422 46.3071 21.4994H45.1275V27.2631H46.4715C47.2829 27.3159 48.0833 27.0527 48.7049 26.5288H48.7242Z" fill="#092335"/>
<path d="M53.2295 19.6538H55.3469V29.1328H53.2295V19.6538Z" fill="#092335"/>
<path d="M64.1113 19.6538H66.2287V29.1328H64.1113L59.5961 23.1903V29.1328H57.4788V19.6538H59.4608L64.1113 25.7557V19.6538Z" fill="#092335"/>
<path d="M74.2391 24.3061H76.3806V27.688C75.8829 28.2191 75.2749 28.6348 74.5993 28.9061C73.9236 29.1773 73.1968 29.2975 72.4698 29.2582C71.822 29.2747 71.1774 29.1609 70.5745 28.9235C69.9716 28.6861 69.4226 28.3301 68.9601 27.8764C68.4949 27.4239 68.1289 26.8797 67.8851 26.2785C67.6412 25.6772 67.525 25.0319 67.5437 24.3834C67.5278 23.7286 67.6485 23.0777 67.8982 22.4721C68.1479 21.8666 68.5211 21.3196 68.994 20.8662C69.45 20.4087 69.9938 20.0479 70.5927 19.8055C71.1916 19.5631 71.8334 19.444 72.4794 19.4554C73.7835 19.4317 75.048 19.903 76.0181 20.7744L74.9304 22.3639C74.585 22.0446 74.1878 21.7865 73.7557 21.6005C73.3858 21.4574 72.9921 21.3852 72.5954 21.388C72.2182 21.3799 71.8433 21.4486 71.4935 21.5898C71.1436 21.731 70.8261 21.9417 70.5602 22.2093C70.281 22.4939 70.0634 22.833 69.9212 23.2054C69.7789 23.5778 69.7151 23.9755 69.7336 24.3737C69.7157 24.7668 69.7766 25.1595 69.9128 25.5287C70.0489 25.8979 70.2575 26.2362 70.5264 26.5236C70.7698 26.7812 71.0637 26.9857 71.3897 27.1245C71.7158 27.2634 72.067 27.3335 72.4214 27.3305C73.0591 27.3539 73.6915 27.2072 74.2536 26.9053L74.2391 24.3061Z" fill="#092335"/>
<path d="M19.7381 39.1963C20.231 39.2062 20.7193 39.0992 21.1629 38.8843C21.6066 38.6693 21.993 38.3524 22.2905 37.9595L23.6441 39.3606C23.1962 39.8919 22.6446 40.3265 22.023 40.6376C21.4014 40.9487 20.7229 41.1299 20.0288 41.1702C19.3348 41.2104 18.6398 41.1088 17.9864 40.8716C17.333 40.6344 16.7348 40.2666 16.2284 39.7906C15.7634 39.339 15.3973 38.7957 15.1535 38.1952C14.9097 37.5947 14.7934 36.9502 14.812 36.3024C14.7966 35.647 14.9175 34.9955 15.1671 34.3892C15.4168 33.7829 15.7897 33.2351 16.2623 32.7804C16.7251 32.3185 17.277 31.9554 17.8844 31.7129C18.4918 31.4704 19.1422 31.3536 19.7961 31.3696C20.5357 31.361 21.2682 31.5159 21.941 31.8232C22.6137 32.1306 23.2102 32.5828 23.6876 33.1475L22.3824 34.6404C22.0946 34.2502 21.7186 33.9335 21.2851 33.7161C20.8517 33.4987 20.3729 33.3866 19.8879 33.3891C19.1301 33.373 18.3962 33.6539 17.843 34.1718C17.5584 34.4402 17.3354 34.767 17.1894 35.1298C17.0433 35.4926 16.9777 35.8828 16.9971 36.2734C16.9788 36.6629 17.0406 37.0521 17.1786 37.4169C17.3166 37.7817 17.5279 38.1143 17.7995 38.3943C18.0501 38.654 18.3516 38.8593 18.6851 38.9973C19.0187 39.1353 19.3771 39.203 19.7381 39.1963Z" fill="#092335"/>
<path d="M31.5433 31.5869V33.4711H26.8203V35.4036H31.0696V37.2106H26.8203V39.1769H31.6932V41.0659H24.7078V31.5869H31.5433Z" fill="#092335"/>
<path d="M39.539 31.5869H41.6564V41.0659H39.539L35.019 35.1283V41.0659H32.9016V31.5869H34.8836L39.539 37.684V31.5869Z" fill="#092335"/>
<path d="M47.6121 33.418V41.0659H45.4947V33.418H42.8069V31.5869H50.2999V33.418H47.6121Z" fill="#092335"/>
<path d="M59.1467 34.7321C59.1467 36.2556 58.5457 37.2363 57.3435 37.6744L59.7607 41.0563H57.1405L55.0376 38.0319H53.5874V41.0659H51.47V31.5869H55.0666C56.5169 31.5869 57.5949 31.8381 58.2234 32.3309C58.8518 32.8237 59.1467 33.6306 59.1467 34.7321ZM56.5942 35.8578C56.7376 35.7118 56.8473 35.5363 56.9158 35.3435C56.9842 35.1508 57.0098 34.9454 56.9906 34.7418C57.0143 34.5464 56.9897 34.3482 56.9189 34.1646C56.8481 33.981 56.7333 33.8175 56.5846 33.6885C56.1382 33.4574 55.635 33.3585 55.1343 33.4035H53.5439V36.2346H55.1101C55.6336 36.2852 56.1584 36.152 56.5942 35.8578Z" fill="#092335"/>
<path d="M68.0368 41.0659L67.1522 39.0175H63.1784L62.2938 41.0659H60.041L64.1404 31.5869H66.1901L70.2896 41.0659H68.0368ZM65.1701 34.4084L63.9761 37.1622H66.3545L65.1701 34.4084Z" fill="#092335"/>
<path d="M70.6812 41.0659V31.5869H72.7985V39.1817H76.8641V41.0659H70.6812Z" fill="#092335"/>
</g>
<defs>
<clipPath id="clip0_18_1061">
<rect width="92" height="60" fill="white"/>
</clipPath>
</defs>
</svg>
