<?xml version="1.0" encoding="utf-8"?>
<!-- Generator: Adobe Illustrator 24.0.0, SVG Export Plug-In . SVG Version: 6.00 Build 0)  -->
<svg version="1.1" id="Слой_1" xmlns="http://www.w3.org/2000/svg" xmlns:xlink="http://www.w3.org/1999/xlink" x="0px" y="0px"
	 viewBox="0 0 30 30" style="enable-background:new 0 0 30 30;" xml:space="preserve">
<style type="text/css">
	.st0{fill:#DC2018;}
	.st1{fill:#FFFF00;}
</style>
<g>
	<path class="st0" d="M0,30C0,20,0,10,0,0c10,0,20,0,30,0c0,10,0,20,0,30C20,30,10,30,0,30z M9.4,22.4c0.2-0.1,0.2-0.2,0.3-0.2
		c1.6-1.1,3.2-2.3,4.7-3.4c0.1-0.1,0.2-0.2,0.4,0c1.1,0.8,2.3,1.7,3.5,2.5c0.5,0.4,1.1,0.8,1.7,1.2c0-0.1-0.1-0.2-0.1-0.3
		c-0.6-1.9-1.2-3.7-1.8-5.6c-0.1-0.2,0-0.4,0.2-0.5c1.4-1,2.7-1.9,4-2.9c0.3-0.2,0.6-0.5,0.9-0.7c0,0,0,0,0-0.1c-0.1,0-0.2,0-0.3,0
		c-1.9,0-3.9,0-5.8,0c-0.3,0-0.4-0.1-0.4-0.3c-0.4-1.4-0.9-2.8-1.4-4.2c-0.2-0.5-0.4-1.1-0.5-1.7c0,0.1-0.1,0.2-0.1,0.3
		c-0.6,1.9-1.2,3.8-1.8,5.6c-0.1,0.2-0.2,0.3-0.5,0.3c-1.9,0-3.9,0-5.8,0c-0.1,0-0.2,0-0.4,0c0.1,0.1,0.2,0.2,0.3,0.2
		c1.6,1.1,3.2,2.3,4.7,3.4c0.2,0.1,0.3,0.3,0.2,0.5c-0.4,1.2-0.8,2.5-1.2,3.7C9.9,20.9,9.7,21.6,9.4,22.4z"/>
	<path class="st1" d="M9.4,22.3c0.3-0.8,0.5-1.5,0.7-2.2c0.4-1.2,0.8-2.5,1.2-3.7c0.1-0.2,0-0.4-0.2-0.5c-1.6-1.1-3.2-2.3-4.7-3.4
		c-0.1-0.1-0.1-0.1-0.3-0.2c0.2,0,0.3,0,0.4,0c1.9,0,3.9,0,5.8,0c0.3,0,0.4-0.1,0.5-0.3c0.6-1.9,1.2-3.8,1.8-5.6
		c0-0.1,0-0.1,0.1-0.3c0.2,0.6,0.4,1.1,0.5,1.7c0.5,1.4,0.9,2.8,1.4,4.2c0.1,0.2,0.2,0.3,0.4,0.3c1.9,0,3.9,0,5.8,0
		c0.1,0,0.2,0,0.3,0c0,0,0,0,0,0.1c-0.3,0.2-0.6,0.5-0.9,0.7c-1.3,1-2.7,1.9-4,2.9c-0.2,0.2-0.3,0.3-0.2,0.5
		c0.6,1.9,1.2,3.7,1.8,5.6c0,0.1,0,0.1,0.1,0.3c-0.6-0.4-1.1-0.8-1.7-1.2c-1.2-0.8-2.3-1.7-3.5-2.5c-0.2-0.1-0.3-0.1-0.4,0
		c-1.6,1.1-3.2,2.3-4.7,3.4C9.7,22.1,9.6,22.2,9.4,22.3z"/>
</g>
</svg>
