<svg width="54" height="18" viewBox="0 0 54 18" fill="none" xmlns="http://www.w3.org/2000/svg">
<path d="M10.0132 11.3023C9.89404 10.6744 9.77483 10.0465 9.77483 9.4186C9.77483 6.06977 12.5166 3.24419 19.5497 3.24419H23.245C22.2914 3.66279 21.3377 4.0814 20.5033 4.7093C18.7152 5.75581 10.0132 11.3023 10.0132 11.3023ZM39.2185 8.7907L52.6887 0H46.0132L35.8808 6.69767L33.2583 5.23256H26.9404L32.6623 8.89535L28.2517 12.0349C25.9868 13.7093 22.7682 16.0116 18.1192 16.0116C16.2119 16.0116 13.5894 15.6977 12.1589 14.2326L33.8543 0H20.7417C12.6358 0 8.46358 3.97674 8.46358 8.89535C8.46358 9.94186 8.58278 10.8837 9.0596 11.8256L0 17.5814H6.91391L11.0861 14.8605C13.1126 16.8488 16.0927 18 19.1921 18C24.7947 18 29.9205 14.8605 31.7086 13.6047L35.7616 10.7791L46.4901 17.5814H54L39.2185 8.7907Z" fill="#FFCF01"/>
</svg>
