<svg width="150" height="20" viewBox="0 0 150 20" fill="none" xmlns="http://www.w3.org/2000/svg">
    <path
        d="M11.6 12.3C11.5 11.7 11.4 11.1 11.4 10.5C11.4 7.3 13.7 4.6 19.6 4.6H22.7C21.9 5 21.1 5.4 20.4 6C18.9 7 11.6 12.3 11.6 12.3ZM36.0999 9.9L47.4 1.5H41.7999L33.2999 7.9L31.1 6.5H25.7999L30.6 10L26.9 13C25 14.6 22.3 16.8 18.4 16.8C16.8 16.8 14.6 16.5 13.4 15.1L31.6 1.5H20.6C13.8 1.5 10.3 5.3 10.3 10C10.3 11 10.4 11.9 10.8 12.8L3.19995 18.3H8.99995L12.5 15.7C14.2 17.6 16.6999 18.7 19.2999 18.7C24 18.7 28.2999 15.7 29.7999 14.5L33.2 11.8L42.2 18.3H48.5L36.0999 9.9Z"
        fill="#FFCF01" />
    <path
        d="M114.3 8.5001C114 6.9001 112.7 5.8001 111.1 5.9001C109.5 5.9001 108.2 7.0001 107.9 8.5001H114.3ZM117.6 13.4001C117.2 14.4001 115.9 17.3001 111.2 17.3001C109.3 17.4001 107.5 16.7001 106.1 15.4001C104.7 14.1001 103.9 12.2001 104 10.3001C104 8.4001 104.7 6.5001 106 5.1001C107.4 3.8001 109.2 3.1001 111.1 3.2001C113.1 3.1001 115 3.9001 116.3 5.4001C117.4 6.9001 118 8.7001 117.9 10.6001V10.9001H107.9C107.9 11.7001 108.1 12.5001 108.6 13.1001C109.3 13.9001 110.3 14.4001 111.3 14.3001C112.6 14.3001 113.7 13.7001 114.4 12.6001L117.6 13.4001ZM62.5 8.5001C62.2 6.9001 60.9 5.8001 59.3 5.9001C57.7 5.9001 56.3999 7.0001 56.0999 8.5001H62.5ZM65.8 13.4001C65.4 14.4001 64.1 17.3001 59.4 17.3001C57.5 17.4001 55.7 16.7001 54.3 15.4001C52.8999 14.1001 52.1 12.2001 52.2 10.3001C52.1 8.4001 52.8 6.5001 54.2 5.1001C55.6 3.8001 57.4 3.1001 59.3 3.2001C61.3 3.1001 63.2 3.9001 64.5 5.4001C65.6 6.9001 66.2 8.7001 66.1 10.6001V10.9001H56C56 11.7001 56.2 12.5001 56.7 13.1001C57.4 13.9001 58.4 14.4001 59.4 14.3001C60.7 14.3001 61.8 13.7001 62.5 12.6001L65.8 13.4001ZM86.6 3.5001H90.7V5.7001C91.7 4.2001 93.4 3.4001 95.2 3.3001C98.2 3.3001 99.9 4.9001 99.9 9.1001V17.0001H96V9.3001C96 7.7001 95.2 6.7001 94 6.7001C92.7 6.7001 91.5 7.4001 90.7 8.4001V16.8001H86.6V3.5001ZM135.6 15.5001L136.7 12.6001C138.2 13.6001 139.9 14.2001 141.7 14.3001C142.9 14.3001 143.4 13.9001 143.4 13.3001V13.2001C143.4 12.4001 142 12.1001 140.5 11.6001C138.5 11.0001 136.3 10.2001 136.3 7.5001C136.3 4.8001 138.6 3.2001 141.4 3.2001C143.1 3.2001 144.8 3.6001 146.3 4.5001L145.5 7.4001C144.2 6.7001 142.8 6.2001 141.4 6.1001C140.4 6.1001 139.9 6.5001 139.9 7.0001C139.9 7.8001 141.2 8.1001 142.7 8.6001C144.7 9.2001 146.9 10.1001 146.9 12.6001V12.7001C146.9 15.7001 144.6 17.1001 141.5 17.1001C139.4 17.2001 137.3 16.6001 135.6 15.5001ZM121.4 15.5001L122.5 12.6001C124 13.6001 125.7 14.2001 127.5 14.3001C128.6 14.3001 129.2 13.9001 129.2 13.3001V13.2001C129.2 12.4001 127.8 12.1001 126.3 11.6001C124.3 11.0001 122.1 10.2001 122.1 7.5001C122.1 4.8001 124.4 3.2001 127.2 3.2001C128.9 3.2001 130.6 3.6001 132.1 4.5001L131.3 7.4001C130 6.6001 128.6 6.2001 127.2 6.1001C126.2 6.1001 125.7 6.5001 125.7 7.0001C125.7 7.8001 127 8.1001 128.5 8.6001C130.5 9.2001 132.7 10.1001 132.7 12.6001V12.7001C132.7 15.7001 130.4 17.1001 127.3 17.1001C125.1 17.2001 123.1 16.6001 121.4 15.5001ZM75.4 7.4001L78.2 3.5001H82.6L77.5 10.0001L82.8 16.9001H78.2L75.1999 12.7001L72.1999 16.9001H67.8L73.1999 10.0001L68 3.4001H72.6L75.4 7.4001Z"
        fill="white" />
</svg>